<svg width="20" height="20" viewBox="0 0 20 20" fill="none" xmlns="http://www.w3.org/2000/svg">
<g id="vuesax/linear/user-square">
<g id="vuesax/linear/user-square_2">
<g id="user-square">
<path id="Vector" d="M15.1167 18.0167C14.3833 18.2333 13.5167 18.3333 12.5 18.3333H7.5C6.48333 18.3333 5.61666 18.2333 4.88333 18.0167C5.06666 15.85 7.29166 14.1416 10 14.1416C12.7083 14.1416 14.9333 15.85 15.1167 18.0167Z" stroke="#5B5D67" stroke-width="1.5" stroke-linecap="round" stroke-linejoin="round"/>
<path id="Vector_2" d="M12.5 1.66666H7.49999C3.33332 1.66666 1.66666 3.33332 1.66666 7.49999V12.5C1.66666 15.65 2.61666 17.375 4.88332 18.0167C5.06666 15.85 7.29166 14.1416 9.99999 14.1416C12.7083 14.1416 14.9333 15.85 15.1167 18.0167C17.3833 17.375 18.3333 15.65 18.3333 12.5V7.49999C18.3333 3.33332 16.6667 1.66666 12.5 1.66666ZM9.99999 11.8083C8.34999 11.8083 7.01665 10.4667 7.01665 8.81667C7.01665 7.16667 8.34999 5.83332 9.99999 5.83332C11.65 5.83332 12.9833 7.16667 12.9833 8.81667C12.9833 10.4667 11.65 11.8083 9.99999 11.8083Z" stroke="#5B5D67" stroke-width="1.5" stroke-linecap="round" stroke-linejoin="round"/>
<path id="Vector_3" d="M12.9833 8.81669C12.9833 10.4667 11.65 11.8083 10 11.8083C8.35 11.8083 7.01666 10.4667 7.01666 8.81669C7.01666 7.16669 8.35 5.83334 10 5.83334C11.65 5.83334 12.9833 7.16669 12.9833 8.81669Z" stroke="#5B5D67" stroke-width="1.5" stroke-linecap="round" stroke-linejoin="round"/>
</g>
</g>
</g>
</svg>
