<svg width="20" height="20" viewBox="0 0 20 20" fill="none" xmlns="http://www.w3.org/2000/svg">
<g id="vuesax/linear/save-2">
<g id="vuesax/linear/save-2_2">
<g id="save-2">
<path id="Vector" d="M10.7417 4.90002H4.25831C2.83331 4.90002 1.66666 6.06668 1.66666 7.49168V16.9584C1.66666 18.1667 2.53332 18.6833 3.59165 18.0917L6.86665 16.2667C7.21665 16.075 7.78332 16.075 8.12499 16.2667L11.4 18.0917C12.4583 18.6833 13.325 18.1667 13.325 16.9584V7.49168C13.3333 6.06668 12.1667 4.90002 10.7417 4.90002Z" stroke="#5B5D67" stroke-width="1.5" stroke-linecap="round" stroke-linejoin="round"/>
<path id="Vector_2" d="M13.3333 7.49168V16.9584C13.3333 18.1667 12.4667 18.675 11.4083 18.0917L8.13333 16.2667C7.78333 16.075 7.21665 16.075 6.86665 16.2667L3.59165 18.0917C2.53332 18.675 1.66666 18.1667 1.66666 16.9584V7.49168C1.66666 6.06668 2.83331 4.90002 4.25831 4.90002H10.7417C12.1667 4.90002 13.3333 6.06668 13.3333 7.49168Z" stroke="#5B5D67" stroke-width="1.5" stroke-linecap="round" stroke-linejoin="round"/>
<path id="Vector_3" d="M18.3333 4.25834V13.725C18.3333 14.9334 17.4667 15.4417 16.4083 14.8583L13.3333 13.1417V7.49168C13.3333 6.06668 12.1667 4.90002 10.7417 4.90002H6.66666V4.25834C6.66666 2.83334 7.83331 1.66669 9.25831 1.66669H15.7417C17.1667 1.66669 18.3333 2.83334 18.3333 4.25834Z" stroke="#5B5D67" stroke-width="1.5" stroke-linecap="round" stroke-linejoin="round"/>
</g>
</g>
</g>
</svg>
